<svg xmlns="http://www.w3.org/2000/svg" xmlns:xlink="http://www.w3.org/1999/xlink" width="53.089" height="33.349" viewBox="0 0 53.089 33.349">
  <defs>
    <linearGradient id="linear-gradient" x1="0.488" y1="0.309" x2="0.005" y2="0.992" gradientUnits="objectBoundingBox">
      <stop offset="0" stop-color="#346edf"/>
      <stop offset="1" stop-color="#fff"/>
    </linearGradient>
    <linearGradient id="linear-gradient-4" x1="0.488" y1="0.309" x2="0.005" y2="0.992" gradientUnits="objectBoundingBox">
      <stop offset="0" stop-color="#c0d2f5"/>
      <stop offset="1" stop-color="#fff"/>
    </linearGradient>
  </defs>
  <g id="Group_10620" data-name="Group 10620" transform="translate(-161.037 -44.362)">
    <g id="Group_10619" data-name="Group 10619">
      <g id="Component_1208_1" data-name="Component 1208 – 1" transform="translate(161.037 44.362)">
        <g id="Group_10533" data-name="Group 10533" transform="translate(-123.037 -345.362)">
          <path id="Path_8970" data-name="Path 8970" d="M32,18.837Z" transform="translate(144.126 342.924)" fill="#000944"/>
          <g id="Layer_2" transform="translate(123.037 345.362)">
            <path id="Path_170" data-name="Path 170" d="M189.848,129.617l10.427,13.916a.429.429,0,0,1-.04.559l-.017.017a1.552,1.552,0,0,1-2.326-.149L187.18,130.1a.429.429,0,0,1,.007-.531h0A1.689,1.689,0,0,1,189.848,129.617Z" transform="translate(-178.177 -128.816)" fill="#fff"/>
            <path id="Path_171" data-name="Path 171" d="M130.11,128a1.13,1.13,0,0,0-1,.6L120,145.671v15.678h3.853V145.671l7.711-15.309A1.629,1.629,0,0,0,130.11,128Z" transform="translate(-120 -128)" fill="url(#linear-gradient)"/>
            <path id="Path_172" data-name="Path 172" d="M233.848,129.617l10.427,13.916a.429.429,0,0,1-.04.559l-.063.062a1.5,1.5,0,0,1-2.243-.143L231.18,130.1a.429.429,0,0,1,.007-.531h0A1.689,1.689,0,0,1,233.848,129.617Z" transform="translate(-216.331 -128.816)" fill="#fff"/>
            <path id="Path_173" data-name="Path 173" d="M174.11,128a1.131,1.131,0,0,0-1,.6L164,145.671v15.678h3.853V145.671l7.711-15.309A1.629,1.629,0,0,0,174.11,128Z" transform="translate(-158.154 -128)" fill="url(#linear-gradient)"/>
            <path id="Path_174" data-name="Path 174" d="M288.848,129.618l10.427,13.916a.429.429,0,0,1-.04.559l-.057.057a1.5,1.5,0,0,1-2.252-.144L286.18,130.1a.429.429,0,0,1,.007-.531h0A1.688,1.688,0,0,1,288.848,129.618Z" transform="translate(-264.023 -128.817)" fill="#fff"/>
            <path id="Path_175" data-name="Path 175" d="M229.11,128a1.13,1.13,0,0,0-1,.6L219,145.671v15.678h3.853V145.671l7.711-15.309A1.629,1.629,0,0,0,229.11,128Z" transform="translate(-205.846 -128)" fill="url(#linear-gradient)"/>
            <path id="Path_176" data-name="Path 176" d="M332.848,129.617l10.427,13.916a.429.429,0,0,1-.04.559h0a1.574,1.574,0,0,1-2.36-.151L330.18,130.1a.429.429,0,0,1,.007-.531h0A1.689,1.689,0,0,1,332.848,129.617Z" transform="translate(-302.177 -128.816)" fill="#fff"/>
            <path id="Path_177" data-name="Path 177" d="M273.11,128a1.13,1.13,0,0,0-1,.6L263,145.671v15.678h3.853V145.671l7.712-15.309A1.629,1.629,0,0,0,273.11,128Z" transform="translate(-244 -128)" fill="url(#linear-gradient-4)"/>
            <g id="Group_383" data-name="Group 383" transform="translate(25.616 18.973)">
              <path id="Path_178" data-name="Path 178" d="M313.626,271.58v2.68h3.1v-2.68h.836v6.405h-.836v-3h-3.1v3H312.8V271.58Z" transform="translate(-312.8 -271.476)" fill="#fff"/>
              <path id="Path_179" data-name="Path 179" d="M362.434,274.041c0,2.206-1.341,3.373-2.975,3.373a2.936,2.936,0,0,1-2.879-3.25c0-2.034,1.263-3.364,2.975-3.364C361.3,270.8,362.434,272.139,362.434,274.041Zm-4.971.1c0,1.368.741,2.595,2.044,2.595s2.053-1.206,2.053-2.661c0-1.273-.666-2.6-2.043-2.6S357.463,272.738,357.463,274.144Z" transform="translate(-350.763 -270.8)" fill="#fff"/>
              <path id="Path_180" data-name="Path 180" d="M413.01,275.173c-.048-.893-.105-1.968-.1-2.766h-.028c-.219.751-.485,1.549-.808,2.433l-1.131,3.108h-.627l-1.036-3.051c-.3-.9-.561-1.73-.741-2.49h-.018c-.019.8-.066,1.872-.124,2.833l-.171,2.746h-.789l.446-6.405h1.055l1.093,3.1c.266.789.485,1.492.646,2.158h.028c.162-.646.389-1.35.675-2.158l1.14-3.1h1.055l.4,6.405h-.808Z" transform="translate(-394.866 -271.476)" fill="#fff"/>
              <path id="Path_181" data-name="Path 181" d="M469.566,274.983h-2.49v2.309h2.776v.694h-3.6V271.58h3.46v.694h-2.632V274.3h2.49v.684Z" transform="translate(-445.862 -271.476)" fill="#fff"/>
            </g>
            <g id="Group_384" data-name="Group 384" transform="translate(30.433 28.497)">
              <path id="Path_182" data-name="Path 182" d="M349.265,344.482a.69.69,0,0,0,.759.567c.49,0,.679-.246.679-.537s-.134-.49-.724-.636c-.567-.142-.813-.326-.813-.713,0-.352.256-.683.832-.683a.787.787,0,0,1,.874.687h-.215a.6.6,0,0,0-.671-.494c-.387,0-.6.181-.6.48s.177.411.671.533c.755.187.866.49.866.813,0,.395-.287.736-.909.736a.859.859,0,0,1-.966-.752Z" transform="translate(-349.05 -342.48)" fill="#fff"/>
              <path id="Path_183" data-name="Path 183" d="M369.036,344.136h-1.369v1.127h1.5l-.031.191H367.46V342.77H369.1v.191h-1.438v.982h1.369Z" transform="translate(-365.014 -342.731)" fill="#fff"/>
              <path id="Path_184" data-name="Path 184" d="M384.491,344.21v1.254h-.211V342.78h.962c.529,0,.809.284.809.706a.607.607,0,0,1-.5.628c.276.065.46.246.46.7v.1a1.774,1.774,0,0,0,.035.545h-.211a1.771,1.771,0,0,1-.039-.559v-.069c0-.441-.13-.624-.644-.624h-.658Zm0-.191h.648c.472,0,.69-.177.69-.529,0-.33-.215-.517-.632-.517h-.706Z" transform="translate(-379.599 -342.74)" fill="#fff"/>
              <path id="Path_185" data-name="Path 185" d="M400.986,345.464l-1-2.684h.222l.521,1.4.214.584.162.5h.008c.057-.2.242-.671.391-1.066l.541-1.419s.422-.671.218,0-1.035,2.684-1.035,2.684Z" transform="translate(-393.222 -342.74)" fill="#fff"/>
              <path id="Path_186" data-name="Path 186" d="M421.336,344.495a.981.981,0,0,1-1.009.748,1.21,1.21,0,0,1-1.177-1.369,1.236,1.236,0,0,1,1.181-1.384.939.939,0,0,1,1.008.771h-.207a.777.777,0,0,0-.813-.579c-.667,0-.947.61-.947,1.189s.276,1.181.962,1.181a.786.786,0,0,0,.793-.555h.209Z" transform="translate(-409.836 -342.489)" fill="#fff"/>
              <path id="Path_187" data-name="Path 187" d="M441.246,344.136h-1.369v1.127h1.5l-.031.191H439.67V342.77h1.645v.191h-1.437v.982h1.369Z" transform="translate(-427.63 -342.731)" fill="#fff"/>
            </g>
          </g>
        </g>
      </g>
    </g>
  </g>
</svg>
